<?xml version="1.0" encoding="utf-8"?>
<!-- Generator: Adobe Illustrator 19.1.0, SVG Export Plug-In . SVG Version: 6.00 Build 0)  -->
<svg version="1.1" id="Layer_1" xmlns="http://www.w3.org/2000/svg" xmlns:xlink="http://www.w3.org/1999/xlink" x="0px" y="0px"
	 viewBox="0 0 100 100" style="enable-background:new 0 0 100 100;" xml:space="preserve">
<style type="text/css">
	.st0{fill:#D1E9F9;}
	.st1{fill:#6096CC;}
</style>
<g>
	<g>
		<path class="st0" d="M38.9,43.2l-6.4,6.4c-1.6,1.6-1.6,4.3,0,5.9l18.8,18.8c1.6,1.6,4.3,1.6,5.9,0L76,55.4c1.6-1.6,1.6-4.3,0-5.9
			L57.2,30.7c-1.6-1.6-4.3-1.6-5.9,0l-7.9,7.9L38.9,43.2z"/>
	</g>
	<g>
		<g>
			<path class="st1" d="M67.8,86H11.3C7.8,86,5,83.2,5,79.7v-55c0-3.5,2.8-6.3,6.3-6.3h2.4c1.1,0,2,0.9,2,2s-0.9,2-2,2h-2.4
				c-1.3,0-2.3,1-2.3,2.3v55C9,81,10,82,11.3,82h56.6c1.1,0,2,0.9,2,2S68.9,86,67.8,86z"/>
		</g>
		<g>
			<path class="st1" d="M84.4,86h-9.8c-1.1,0-2-0.9-2-2s0.9-2,2-2h9.8c1.3,0,2.3-1,2.3-2.3v-55c0-1.3-1-2.3-2.3-2.3H13.7
				c-1.1,0-2-0.9-2-2s0.9-2,2-2h70.7c3.5,0,6.3,2.8,6.3,6.3v55C90.7,83.2,87.9,86,84.4,86z"/>
		</g>
		<g>
			<path class="st1" d="M55.8,56.2c-1.9-1.9-4.4-2.9-7-2.9c-2.7,0-5.2,1-7,2.9l-2.8-2.8c2.6-2.6,6.1-4.1,9.9-4.1
				c3.7,0,7.2,1.5,9.9,4.1L55.8,56.2z"/>
		</g>
		<g>
			<path class="st1" d="M48.8,77.5c-1.6,0-3.2-0.6-4.3-1.8L25.6,56.9c-1.2-1.2-1.8-2.7-1.8-4.3c0-1.6,0.6-3.2,1.8-4.3l6.4-6.4
				c0.8-0.8,2-0.8,2.8,0c0.8,0.8,0.8,2,0,2.8L28.4,51c-0.4,0.4-0.6,0.9-0.6,1.5c0,0.6,0.2,1.1,0.6,1.5l18.8,18.8
				c0.4,0.4,0.9,0.6,1.5,0.6c0.6,0,1.1-0.2,1.5-0.6l18.8-18.8c0.4-0.4,0.6-0.9,0.6-1.5c0-0.6-0.2-1.1-0.6-1.5L50.3,32.2
				c-0.4-0.4-0.9-0.6-1.5-0.6c-0.6,0-1.1,0.2-1.5,0.6l-7.9,7.9c-0.8,0.8-2,0.8-2.8,0c-0.8-0.8-0.8-2,0-2.8l7.9-7.9
				c1.2-1.2,2.7-1.8,4.3-1.8c1.6,0,3.2,0.6,4.3,1.8l18.8,18.8c1.2,1.2,1.8,2.7,1.8,4.3c0,1.6-0.6,3.2-1.8,4.3L53.1,75.7
				C52,76.9,50.4,77.5,48.8,77.5z"/>
		</g>
		<g>
			<path class="st1" d="M48.4,63c-6,0-10.9-4.9-10.9-10.9s4.9-10.9,10.9-10.9s10.9,4.9,10.9,10.9S54.3,63,48.4,63z M48.4,45.2
				c-3.8,0-6.9,3.1-6.9,6.9s3.1,6.9,6.9,6.9c3.8,0,6.9-3.1,6.9-6.9S52.1,45.2,48.4,45.2z"/>
		</g>
	</g>
</g>
</svg>
