<?xml version="1.0" encoding="utf-8"?>
<!-- Generator: Adobe Illustrator 19.1.0, SVG Export Plug-In . SVG Version: 6.00 Build 0)  -->
<svg version="1.1" id="Layer_1" xmlns="http://www.w3.org/2000/svg" xmlns:xlink="http://www.w3.org/1999/xlink" x="0px" y="0px"
	 viewBox="0 0 100 100" style="enable-background:new 0 0 100 100;" xml:space="preserve">
<style type="text/css">
	.st0{opacity:0.6;fill:#D1E9F9;}
	.st1{fill:#6096CC;}
</style>
<g>
	<path class="st0" d="M95.6,23.3L95.6,23.3c-2.4-2.4-6.1-2.7-8.8-1c-2.7-1.8-6.3-1.5-8.7,0.9l-0.1,0.1c-1.3,1.3-2,3-2,4.9
		s0.7,3.6,2,4.9l7.4,7.4c0.3,0.3,0.8,0.5,1.2,0.5c0,0,0.1,0,0.1,0c0,0,0.1,0,0.1,0c0.4,0,0.9-0.2,1.2-0.5l7.4-7.4
		C98.3,30.4,98.3,26,95.6,23.3z"/>
	<path class="st0" d="M65.4,58H62c0,0-0.1-0.2-0.1-0.2c0,0,0-0.1,0-0.1c-1.1,0-2,0.9-2,2l-0.2-13.5c0.1-0.1-0.5-6.3-2.6-7.6
		c-1.7-1,0.6,1.8-0.2,1.1c-6-5.1-10.9-5.7-18.8-5.4c-8,0.3-14.8,2.6-20.5,8.2c-0.2,0.2-0.4,0.5-0.5,0.7l0.2-0.3l-0.4,0
		c-0.2,0.5-0.4,1.8-0.4,2.7l-0.5,10.9c0,0.2-0.1,0.4-0.1,0.6V58h-1.7c-3.8,0-7,3.2-7,7c0,3.8,3.1,7,6.9,7h2
		c1,12,11.2,21.7,23.7,21.7c12.7,0,23.1-9.7,23.8-22.7h1.7c3.8,0,6.9-2.7,6.9-6.5C72.4,60.7,69.3,58,65.4,58z"/>
	<g>
		<g>
			<path class="st1" d="M38,90.2c-13.1,0-23.8-10.7-23.8-23.8V53.6c0-2.7,1.3-5.2,3.6-6.8c0.9-0.6,2.2-0.4,2.8,0.5
				c0.6,0.9,0.4,2.2-0.5,2.8c-1.1,0.8-1.8,2-1.8,3.4v12.8c0,10.9,8.8,19.7,19.7,19.7s19.7-8.8,19.7-19.7V56c0-1.1,0.9-2,2-2
				c1.1,0,2,0.9,2,2v10.4C61.8,79.5,51.1,90.2,38,90.2z"/>
		</g>
		<g>
			<path class="st1" d="M16.4,43.4c-0.5,0-1-0.2-1.4-0.6c-0.8-0.8-0.8-2.1,0-2.9c5.6-5.6,13.1-8.9,21.1-9.2
				c7.9-0.3,15.6,2.3,21.6,7.4c0.9,0.7,1,2,0.2,2.9c-0.7,0.9-2,1-2.9,0.2c-5.2-4.4-11.9-6.7-18.8-6.5c-6.9,0.3-13.4,3.1-18.4,8
				C17.5,43.2,17,43.4,16.4,43.4z"/>
		</g>
		<g>
			<path class="st1" d="M46.7,51.8c-1,0-2,0-2.9-0.1c-9.8-0.7-17.4-5.1-21.3-12.2c-0.5-1-0.2-2.2,0.8-2.8c1-0.5,2.2-0.2,2.8,0.8
				c2.3,4.2,7.3,9.3,18,10.1c7.7,0.6,16.4-1.4,23.4-5.2c1-0.5,2.2-0.2,2.8,0.8c0.5,1,0.2,2.2-0.8,2.8C62.6,49.7,54.3,51.8,46.7,51.8
				z"/>
		</g>
		<g>
			<path class="st1" d="M63.5,67h-3.5c-1.1,0-2-0.4-2-1.5s0.9-1.5,2-1.5h3.5c1.6,0,2.8-1.4,2.8-3c0-1.5-1.3-3-2.9-3h-3.5
				c-1.1,0-2-0.9-2-2s0.9-2,2-2h3.5c3.8,0,7,2.7,7,6.5S67.3,67,63.5,67z"/>
		</g>
		<g>
			<path class="st1" d="M15.5,69h-3.3c-3.8,0-6.9-3.7-6.9-7.5s3.1-7.5,7-7.5h3.2c1.1,0,2,1.4,2,2.5s-0.9,2.5-2,2.5h-3.2
				c-1.6,0-2.9,1-2.9,2.5c0,1.6,1.2,2.5,2.8,2.5h3.3c1.1,0,2,1.4,2,2.5S16.7,69,15.5,69z"/>
		</g>
		<g>
			<path class="st1" d="M37.1,79.1c-3.5,0-7-1.3-9.7-4c-0.8-0.8-0.8-2.1,0-2.9c0.8-0.8,2.1-0.8,2.9,0c3.7,3.7,9.8,3.7,13.6,0
				c0.8-0.8,2.1-0.8,2.9,0c0.8,0.8,0.8,2.1,0,2.9C44.1,77.8,40.6,79.1,37.1,79.1z"/>
		</g>
		<g>
			<g>
				<g>
					<path class="st1" d="M73.2,24.7c-0.5,0-1-0.2-1.4-0.6c-0.8-0.8-0.8-2.1,0-2.9c3.1-3.2,8.3-3.1,11.4,0c0.8,0.8,0.8,2.1,0,2.9
						c-0.8,0.8-2.1,0.8-2.9,0c-1.6-1.6-4.1-1.6-5.7,0C74.2,24.5,73.7,24.7,73.2,24.7z"/>
				</g>
				<g>
					<path class="st1" d="M73.1,33.3c-0.5,0-1-0.2-1.4-0.6c-3.2-3.1-3.2-8.3,0-11.4c0.8-0.8,2.1-0.8,2.9,0c0.8,0.8,0.8,2.1,0,2.9
						C73.8,25,73.3,26,73.3,27c0,1.1,0.4,2.1,1.2,2.8c0.8,0.8,0.8,2.1,0,2.9C74.1,33.1,73.6,33.3,73.1,33.3z"/>
				</g>
			</g>
			<g>
				<g>
					<path class="st1" d="M81.7,22.7"/>
				</g>
			</g>
			<g>
				<path class="st1" d="M81.7,42c-0.5,0-1-0.2-1.4-0.6l-8.6-8.6c-0.8-0.8-0.8-2.1,0-2.9c0.8-0.8,2.1-0.8,2.9,0l8.6,8.6
					c0.8,0.8,0.8,2.1,0,2.9C82.8,41.8,82.2,42,81.7,42z"/>
			</g>
			<g>
				<g>
					<path class="st1" d="M81.7,24.7c-0.5,0-1-0.2-1.4-0.6c-0.8-0.8-0.8-2.1,0-2.9c3.1-3.2,8.3-3.1,11.4,0c0.8,0.8,0.8,2.1,0,2.9
						c-0.8,0.8-2.1,0.8-2.9,0c-1.6-1.6-4.1-1.6-5.7,0C82.8,24.5,82.2,24.7,81.7,24.7z"/>
				</g>
				<g>
					<path class="st1" d="M90.4,33.3c-0.5,0-1-0.2-1.4-0.6c-0.8-0.8-0.8-2.1,0-2.9c0.8-0.8,1.2-1.8,1.2-2.8c0-1.1-0.4-2.1-1.2-2.8
						c-0.8-0.8-0.8-2.1,0-2.9c0.8-0.8,2.1-0.8,2.9,0c3.2,3.1,3.2,8.3,0,11.4C91.4,33.1,90.9,33.3,90.4,33.3z"/>
				</g>
			</g>
			<g>
				<g>
					<path class="st1" d="M81.7,22.7"/>
				</g>
			</g>
			<g>
				<path class="st1" d="M81.7,42c-0.5,0-1-0.2-1.4-0.6c-0.8-0.8-0.8-2.1,0-2.9l8.7-8.7c0.8-0.8,2.1-0.8,2.9,0
					c0.8,0.8,0.8,2.1,0,2.9l-8.7,8.7C82.7,41.8,82.2,42,81.7,42z"/>
			</g>
			<g>
				<path class="st1" d="M81.7,39.9"/>
			</g>
		</g>
		<g>
			<path class="st1" d="M81.7-13"/>
		</g>
	</g>
</g>
</svg>
