<?xml version="1.0" encoding="utf-8"?>
<!-- Generator: Adobe Illustrator 19.1.0, SVG Export Plug-In . SVG Version: 6.00 Build 0)  -->
<svg version="1.1" id="Layer_1" xmlns="http://www.w3.org/2000/svg" xmlns:xlink="http://www.w3.org/1999/xlink" x="0px" y="0px"
	 viewBox="0 0 100 100" style="enable-background:new 0 0 100 100;" xml:space="preserve">
<style type="text/css">
	.st0{opacity:0.6;}
	.st1{fill:#D1E9F9;}
	.st2{fill:#6096CC;}
</style>
<g>
	<g class="st0">
		<path class="st1" d="M10.6,64.6l8.8-15.3c1.2-2.1,0.3-2.1,1.5,0l8.8,15.3c1.2,2.1-0.3,4.6-2.7,4.6H13.3
			C10.9,69.2,9.4,66.6,10.6,64.6z"/>
	</g>
	<g>
		<path class="st2" d="M68.9,93h-37c-1.2,0-2.2-0.8-2.2-2s1-2,2.2-2h37c1.2,0,2.2,0.8,2.2,2S70.1,93,68.9,93z"/>
	</g>
	<g>
		<path class="st2" d="M85.2,88.4"/>
	</g>
	<g>
		<path class="st2" d="M18.4,88.4"/>
	</g>
	<g>
		<path class="st2" d="M50,91.9c-1.2,0-2-1-2-2.2V24.4c0-1.2,0.8-2.2,2-2.2s2,1,2,2.2v65.2C52,90.9,51.2,91.9,50,91.9z"/>
	</g>
	<g>
		<path class="st2" d="M43,91.9c-1.2,0-2-1-2-2.2v-5.5c0-1.2,0.8-2.2,2-2.2s2,1,2,2.2v5.5C45,90.9,44.2,91.9,43,91.9z"/>
	</g>
	<g>
		<path class="st2" d="M57,91.9c-1.2,0-2-1-2-2.2v-5.5c0-1.2,0.8-2.2,2-2.2s2,1,2,2.2v5.5C59,90.9,58.2,91.9,57,91.9z"/>
	</g>
	<g>
		<path class="st2" d="M50.1,33H16.9c-1.2,0-2.2-1.3-2.2-2.5s1-2.5,2.2-2.5h33.2c1.2,0,2.2,1.3,2.2,2.5S51.3,33,50.1,33z"/>
	</g>
	<g>
		<path class="st2" d="M17,42.1c-1.2,0-2-1-2-2.2v-9.4c0-1.2,0.8-2.2,2-2.2s2,1,2,2.2v9.4C19,41.1,18.2,42.1,17,42.1z"/>
	</g>
	<g>
		<path class="st2" d="M26.2,70.5H7.1c-1.8,0-3.5-0.9-4.4-2.5s-0.9-3.5,0-5.1l9.5-16.5c0.6-1.1,2-1.4,3-0.8c1.1,0.6,1.4,2,0.8,3
			L6.5,65.2c-0.2,0.3-0.1,0.5,0,0.6c0.1,0.1,0.2,0.3,0.6,0.3h19.1c0.3,0,0.5-0.2,0.6-0.3c0.1-0.1,0.2-0.4,0-0.6L18.5,51
			c-0.6-1.1-0.2-2.4,0.8-3c1.1-0.6,2.4-0.2,3,0.8L30.5,63c0.9,1.6,0.9,3.5,0,5.1C29.6,69.6,28,70.5,26.2,70.5z"/>
	</g>
	<g>
		<path class="st2" d="M20.4,49.9"/>
	</g>
	<g class="st0">
		<path class="st1" d="M95.8,64.6L87,49.3c-1.2-2.1-0.3-2.1-1.5,0l-8.8,15.3c-1.2,2.1,0.3,4.6,2.7,4.6h13.8
			C95.5,69.2,97,66.6,95.8,64.6z"/>
	</g>
	<g>
		<path class="st2" d="M83.3,33H50.1c-1.2,0-2.2-1.3-2.2-2.5s1-2.5,2.2-2.5h33.2c1.2,0,2.2,1.3,2.2,2.5S84.5,33,83.3,33z"/>
	</g>
	<g>
		<path class="st2" d="M83,42.1c-1.2,0-2-1-2-2.2v-9.4c0-1.2,0.8-2.2,2-2.2s2,1,2,2.2v9.4C85,41.1,84.2,42.1,83,42.1z"/>
	</g>
	<g>
		<path class="st2" d="M93.1,70.5H74.1c-1.8,0-3.5-0.9-4.4-2.5c-0.9-1.6-0.9-3.5,0-5.1l8.2-14.2c0.6-1.1,2-1.4,3-0.8
			c1.1,0.6,1.4,2,0.8,3l-8.2,14.2c-0.2,0.3-0.1,0.5,0,0.6c0.1,0.1,0.2,0.3,0.6,0.3h19.1c0.3,0,0.5-0.2,0.6-0.3
			c0.1-0.1,0.2-0.4,0-0.6l-9.5-16.5c-0.6-1.1-0.2-2.4,0.8-3c1.1-0.6,2.4-0.2,3,0.8L97.5,63c0.9,1.6,0.9,3.5,0,5.1S95,70.5,93.1,70.5
			z"/>
	</g>
	<g>
		<path class="st2" d="M79.8,49.9"/>
	</g>
	<g>
		<path class="st2" d="M54,19h-8.3c-1.2,0-2.2-0.8-2.2-2s1-2,2.2-2H54c1.2,0,2.2,0.8,2.2,2S55.2,19,54,19z"/>
	</g>
</g>
</svg>
