<?xml version="1.0" encoding="utf-8"?>
<!-- Generator: Adobe Illustrator 19.1.0, SVG Export Plug-In . SVG Version: 6.00 Build 0)  -->
<svg version="1.1" id="Layer_1" xmlns="http://www.w3.org/2000/svg" xmlns:xlink="http://www.w3.org/1999/xlink" x="0px" y="0px"
	 viewBox="0 0 161 127" style="enable-background:new 0 0 161 127;" xml:space="preserve">
<style type="text/css">
	.st0{opacity:0.71;fill:#FAE157;}
	.st1{fill:#6B6AAC;}
	.st2{fill:#20B2D1;}
	.st3{fill:#EBC7A1;}
	.st4{fill:#F4D1AC;}
	.st5{fill:#692E1A;}
	.st6{fill:#84472D;}
	.st7{fill:#CCA97B;}
	.st8{fill:#47C6E4;}
	.st9{fill:#3E3E3F;}
	.st10{fill:none;stroke:#F59392;stroke-width:2;stroke-linecap:round;stroke-linejoin:round;stroke-miterlimit:10;}
	.st11{fill:#AF7653;}
	.st12{fill:#BE8662;}
	.st13{fill:#23B7D3;}
	.st14{fill:#CB9877;}
	.st15{fill:#F59392;}
	.st16{fill:#F15757;}
	.st17{fill:#1A9AB2;}
	.st18{fill:none;stroke:#692E1A;stroke-width:2;stroke-linecap:round;stroke-linejoin:round;stroke-miterlimit:10;}
</style>
<g>
	<path class="st0" d="M130.3,70.1c-9.8,29.7-30.4,50-61.7,50S15.4,91,25.5,61.4C37.9,24.7,62.3,4.7,93.5,4.7S141.5,36.3,130.3,70.1z
		"/>
	<g>
		<g>
			<g>
				<g>
					<g>
						<path class="st1" d="M153,88.9c-0.8-1.7-2.1-3-3.9-3.8L134,80.1h-16.5h-16.5L86,85.2c-1.7,0.7-3.1,2.1-3.9,3.8l-5.1,13.9
							l42.4,4.3L153,88.9z"/>
					</g>
				</g>
			</g>
			<g>
				<g>
					<g>
						<path class="st2" d="M117.6,92.8c4.9,0,16.5-1.3,16.5-8.9c0-0.9,0-2.3,0-3.9h-3.8V84c0,0-2.5,5.1-12.7,5.1S104.9,84,104.9,84
							v-3.9h-3.8c0,1.6,0,3,0,3.9C101.1,91.6,112.7,92.8,117.6,92.8z"/>
					</g>
				</g>
			</g>
		</g>
		<g>
			<g>
				<g>
					<path class="st3" d="M136.5,50.9c-1.3,0-1.3,1.4-1.3,1.4v-0.1l-1.3,1.3c0-22.8-5.1-15.2-16.5-15.2s-16.5-7.6-16.5,15.2
						l-1.3-1.3v8.9l5.1,12.7l6.5,5.1c0.7,0.8,1.8,1.3,2.8,1.3h3.4h3.4c1.1,0,2.1-0.5,2.8-1.3l6.5-5.1l4.1-10.1
						c3.6-0.3,4.8-5.7,4.8-9.8C139.1,52.3,137.8,50.9,136.5,50.9z"/>
				</g>
			</g>
			<g>
				<g>
					<path class="st4" d="M101.1,53.5l-1.3-1.3v0.1c0,0,0-1.4-1.3-1.4c-1.3,0-2.5,1.4-2.5,2.8c0,4.1,1.2,9.6,4.8,9.8l4.1,10.1
						l6.5,5.1c0.7,0.8,1.8,1.3,2.8,1.3h3.4V38.3C106.2,38.3,101.1,30.7,101.1,53.5z"/>
				</g>
			</g>
			<g>
				<g>
					<g>
						<path class="st5" d="M117.6,30.7c-15.2,0-19,8.9-17.7,21.5l1.3,1.3c0-22.8,5.1-15.2,16.5-15.2S134,30.7,134,53.5l1.3-1.3
							C136.5,39.5,132.7,30.7,117.6,30.7z"/>
					</g>
				</g>
			</g>
			<g>
				<g>
					<g>
						<path class="st6" d="M99.8,52.2l1.3,1.3c0-22.8,5.1-15.2,16.5-15.2v-7.6C102.4,30.7,98.6,39.5,99.8,52.2z"/>
					</g>
				</g>
			</g>
			<g>
				<g>
					<path class="st7" d="M120.9,80h-3.4h-3.4c-1.1,0-2.1-0.5-2.8-1.3l-6.5-5.1v11.4c0,0,2.5,5.1,12.7,5.1s12.7-5.1,12.7-5.1V73.7
						l-6.5,5.1C123,79.6,122,80,120.9,80z"/>
				</g>
			</g>
			<g>
				<g>
					<g>
						<polygon class="st8" points="78.4,100.3 78.4,100.3 78.9,99.1 						"/>
					</g>
				</g>
			</g>
			<g>
				<g>
					<g>
						<path class="st8" d="M82.1,90.2"/>
					</g>
				</g>
			</g>
			<g>
				<g>
					<g>
						<polygon class="st8" points="81.6,91.5 81.6,91.5 82.1,90.2 						"/>
					</g>
				</g>
			</g>
			<g>
				<g>
					<path class="st3" d="M111.4,78.8l-6.5-5.1v11.4c0,0,2.5,5.1,12.7,5.1V80h-3.4C113.1,80,112.1,79.6,111.4,78.8z"/>
				</g>
			</g>
			<g>
				<g>
					<g>
						<path class="st9" d="M113.8,53.5c0-1.4-1.1-2.5-2.5-2.5c0,0,0,0,0,0c0.1,1.4-1.1,2.6-2.5,2.6c0,1.4,1.2,2.5,2.5,2.5
							C112.6,56,113.8,54.9,113.8,53.5z"/>
					</g>
				</g>
			</g>
			<g>
				<g>
					<g>
						<path class="st9" d="M109.4,51.7c-1,1-1,2.6,0,3.6c0,0,0,0,0,0c0.9-1,2.6-1.1,3.6-0.1c0.9-1,0.9-2.5,0-3.5
							C112,50.7,110.4,50.7,109.4,51.7z"/>
					</g>
				</g>
			</g>
			<g>
				<g>
					<g>
						<path class="st9" d="M126.4,53.5c0-1.4-1.1-2.5-2.5-2.5c0,0,0,0,0,0c0.1,1.4-1.1,2.6-2.5,2.6c0,1.4,1.2,2.5,2.5,2.5
							C125.3,56,126.4,54.9,126.4,53.5z"/>
					</g>
				</g>
			</g>
			<g>
				<g>
					<g>
						<path class="st9" d="M122.1,51.7c-1,1-1,2.6,0,3.6c0,0,0,0,0,0c0.9-1,2.6-1.1,3.6-0.1c0.9-1,0.9-2.5,0-3.5
							C124.7,50.7,123.1,50.7,122.1,51.7z"/>
					</g>
				</g>
			</g>
		</g>
		<path class="st10" d="M110.8,67.6c3.4,3.4,8.9,3.4,12.2,0"/>
		<g>
			<g>
				<g>
					<path class="st1" d="M152.8,88.6c0.1,0.1,2,4.5,1.6,5c-3.1,5.8-24.9,18.4-44.6,18.4c-15.4,0-28.3-3.7-32.8-8.9
						c-0.1-0.1,1.6-2.8,1.1-1.6l8.1-1.3l24.1,2.3l27-5.7L152.8,88.6z"/>
				</g>
			</g>
		</g>
	</g>
	<g>
		<g>
			<g>
				<path class="st11" d="M94.6,101L94,98.6c-1.3-3.3-4.1-5.9-7.5-6.9L67.4,87V75c-4.1,6.4-9.7,9.4-14.5,11
					c-4.8-1.6-10.4-4.6-14.5-10.9v15.3c0,0,2.4,5.8,14,5.8v15.9L94.6,101z"/>
			</g>
		</g>
		<g>
			<g>
				<path class="st12" d="M38.4,75.1v12l-19.2,4.6c-3.4,1-6.2,3.6-7.5,6.9l-5.2,13.5h46.4V86C48.1,84.4,42.5,81.4,38.4,75.1z"/>
			</g>
		</g>
		<g>
			<g>
				<g>
					<path class="st13" d="M94,98.6c-0.8-2.2-2.3-4.1-4.2-5.4c-3.6,6.6-19.4,11.6-38.4,11.6c-17.5,0-32.3-4.2-37.3-10.1
						c-1,1.1-1.9,2.4-2.4,3.8l-5.2,13.5h46.4L94.6,101L94,98.6z"/>
				</g>
			</g>
		</g>
		<path class="st5" d="M85,46c1.9-0.7,1.8-3.5-0.2-4.1c1.8-1,1.2-3.8-0.8-4c1.7-1.2,0.9-3.8-1.2-3.9c1.5-1.4,0.3-4-1.8-3.7
			c1.3-1.6-0.1-3.9-2.1-3.5c1.1-1.8-0.7-3.9-2.7-3.1c0.9-1.9-1.1-3.8-2.9-2.9c0.6-2-1.7-3.6-3.4-2.3c0.4-2-2-3.4-3.5-2.1
			c0.1-2-2.5-3-3.8-1.4c-0.1-2.1-2.8-2.8-3.9-1.1c-0.4-2-3.2-2.3-4.1-0.4c-0.6-2-3.4-2-4.1-0.1c-0.9-1.8-3.7-1.4-4,0.6
			c-1.1-1.8-3.8-1.1-4,0.9c-1.4-1.5-3.9-0.5-3.7,1.6c-1.5-1.5-3.9-0.2-3.6,1.9C33.5,17.3,31.3,19,32,21c-1.8-1.1-3.9,0.8-3,2.7
			c-1.9-0.7-3.7,1.5-2.5,3.2c-2-0.6-3.5,1.8-2.3,3.4c-2-0.2-3.2,2.3-1.6,3.7c-2.1,0-3,2.6-1.4,3.9c-2,0.3-2.5,3-0.7,4
			c-2,0.5-2.2,3.3-0.3,4.1c-1.9,0.8-1.7,3.6,0.3,4.1c-1.9,1-1.4,3.7,0.7,4c-1.6,1.2-0.7,3.9,1.3,3.8c-1.5,1.4-0.4,3.9,1.7,3.7
			c-1.3,1.6,0.2,3.9,2.2,3.4c-1.1,1.7,0.6,3.9,2.5,3.2c-0.8,1.9,1.2,3.7,3,2.7c-0.7,2,1.6,3.6,3.3,2.5c-0.3,2,2.1,3.3,3.6,1.9
			c-0.2,2.1,2.4,3.1,3.8,1.6c0.2,2,2.9,2.7,4,1c0.4,2,3.1,2.4,4,0.6c0.7,1.9,3.4,1.9,4.1-0.1c0.9,1.9,3.6,1.6,4-0.5
			c1.1,1.7,3.8,1,3.9-1.1c1.3,1.6,3.9,0.6,3.8-1.4c1.5,1.4,4,0,3.5-2c1.7,1.2,3.9-0.4,3.3-2.3c1.8,1,3.8-1,2.9-2.8
			c1.9,0.8,3.7-1.3,2.6-3.1c2,0.5,3.5-1.9,2.1-3.5c2.1,0.3,3.2-2.2,1.8-3.6c2.1,0,2.9-2.7,1.2-3.9c2.1-0.2,2.6-2.9,0.8-4
			C86.8,49.5,87,46.7,85,46z"/>
		<g>
			<g>
				<g>
					<path class="st12" d="M38.4,74.5v19.7L50,97.5h2.9V84C48.1,82.4,42.5,80.9,38.4,74.5z"/>
				</g>
			</g>
			<g>
				<g>
					<path class="st11" d="M52.4,84.1v20.8l3.4-0.1l11.6-10.6V74.5C63.2,80.9,57.2,82.5,52.4,84.1z"/>
				</g>
			</g>
			<g>
				<g>
					<path class="st12" d="M74.6,50.7c-0.4,0-0.9,0-1.4,0c0,0,0,0,0,0c0-1.5,0-13.9-0.1-15.3c-11.1,1-36.2,10.6-37.5-1.6
						c-2.6,4.5-2.9,10.5-2.9,16.9c0,0,0,0,0,0c-0.5,0-1,0-1.4,0c-1.4,0-2.9,1.6-2.9,3.2c0,4.5,1.3,10.3,6.1,11.2
						C37,75,42.4,80.3,47.7,83.3c3.2,1.8,7.1,1.8,10.3,0c5.4-3,10.8-8.2,13.4-18.2c4.8-0.8,6.1-6.7,6.1-11.2
						C77.5,52.3,76,50.7,74.6,50.7z"/>
				</g>
			</g>
			<g>
				<g>
					<path class="st14" d="M35.5,33.8c-2.6,4.5-2.9,10.5-2.9,16.9c0,0,0,0,0,0c-0.5,0-1,0-1.4,0c-1.4,0-2.9,1.6-2.9,3.2
						c0,4.5,1.3,10.3,6.1,11.2c3.5,13.2,13.1,19.5,18.6,19.5V40.8C43.9,39.1,35.9,39.8,35.5,33.8z"/>
				</g>
			</g>
			<g>
				<g>
					<g>
						<path class="st15" d="M45.6,69.6h14.5c0,0,0,4.3-7.2,4.3S45.6,69.6,45.6,69.6z"/>
					</g>
				</g>
			</g>
			<g>
				<g>
					<g>
						<path class="st16" d="M47.6,70.2h10.5c0,0,0,3.2-5.3,3.2S47.6,70.2,47.6,70.2z"/>
					</g>
				</g>
			</g>
			<g>
				<g>
					<g>
						<path class="st15" d="M45.6,69.6h14.5c0,0,0,4.3-7.2,4.3S45.6,69.6,45.6,69.6z"/>
					</g>
				</g>
			</g>
			<g>
				<g>
					<g>
						<path class="st15" d="M47.6,70.2h10.5c0,0,0,3.2-5.3,3.2S47.6,70.2,47.6,70.2z"/>
					</g>
				</g>
			</g>
			<g>
				<g>
					<g>
						<path class="st9" d="M48.5,53.6c0-1.6-1.3-2.9-2.9-2.9c0,0,0,0,0,0c0,0,0,0.1,0,0.1c0,1.6-1.3,2.9-2.9,2.9
							c0,1.6,1.3,2.8,2.9,2.8C47.2,56.5,48.5,55.2,48.5,53.6z"/>
					</g>
				</g>
			</g>
			<g>
				<g>
					<g>
						<path class="st9" d="M48.5,53.6c0-1.6-1.3-2.9-2.9-2.9c0,0,0,0,0,0c0,0,0,0.1,0,0.1c0,1.6-1.3,2.9-2.9,2.9
							c0,1.6,1.3,2.8,2.9,2.8C47.2,56.5,48.5,55.2,48.5,53.6z"/>
					</g>
				</g>
			</g>
			<g>
				<g>
					<g>
						<path class="st9" d="M42.7,53.6c0,1.6,1.3,2.9,2.9,2.9c0,0,0,0,0,0c0,0,0-0.1,0-0.1c0-1.6,1.3-2.9,2.9-2.9
							c0-1.6-1.3-2.8-2.9-2.8C44,50.7,42.7,52,42.7,53.6z"/>
					</g>
				</g>
			</g>
			<g>
				<g>
					<g>
						<path class="st9" d="M48.5,53.6c0-1.6-1.3-2.9-2.9-2.9c0,0,0,0,0,0c0,0,0,0.1,0,0.1c0,1.6-1.3,2.9-2.9,2.9
							c0,1.6,1.3,2.8,2.9,2.8C47.2,56.5,48.5,55.2,48.5,53.6z"/>
					</g>
				</g>
			</g>
			<g>
				<g>
					<g>
						<path class="st9" d="M42.7,53.6c0,1.6,1.3,2.9,2.9,2.9c0,0,0,0,0,0c0,0,0-0.1,0-0.1c0-1.6,1.3-2.9,2.9-2.9
							c0-1.6-1.3-2.8-2.9-2.8C44,50.7,42.7,52,42.7,53.6z"/>
					</g>
				</g>
			</g>
			<g>
				<g>
					<g>
						<path class="st9" d="M63,53.6c0-1.6-1.3-2.9-2.9-2.9c0,0,0,0,0,0c0,0,0,0.1,0,0.1c0,1.6-1.3,2.9-2.9,2.9
							c0,1.6,1.3,2.8,2.9,2.8C61.7,56.5,63,55.2,63,53.6z"/>
					</g>
				</g>
			</g>
			<g>
				<g>
					<g>
						<path class="st9" d="M63,53.6c0-1.6-1.3-2.9-2.9-2.9c0,0,0,0,0,0c0,0,0,0.1,0,0.1c0,1.6-1.3,2.9-2.9,2.9
							c0,1.6,1.3,2.8,2.9,2.8C61.7,56.5,63,55.2,63,53.6z"/>
					</g>
				</g>
			</g>
			<g>
				<g>
					<g>
						<path class="st9" d="M57.2,53.6c0,1.6,1.3,2.9,2.9,2.9c0,0,0,0,0,0c0,0,0-0.1,0-0.1c0-1.6,1.3-2.9,2.9-2.9
							c0-1.6-1.3-2.8-2.9-2.8C58.5,50.7,57.2,52,57.2,53.6z"/>
					</g>
				</g>
			</g>
			<g>
				<g>
					<g>
						<circle class="st17" cx="75.1" cy="67.2" r="2.4"/>
					</g>
				</g>
			</g>
			<g>
				<g>
					<g>
						<circle class="st17" cx="30.2" cy="67.2" r="2.4"/>
					</g>
				</g>
			</g>
		</g>
		<circle class="st5" cx="68.7" cy="35.4" r="2.1"/>
		<circle class="st5" cx="65" cy="35.9" r="2.1"/>
		<circle class="st5" cx="61.6" cy="36.8" r="2.1"/>
		<circle class="st5" cx="72.6" cy="34.8" r="2.1"/>
		<circle class="st5" cx="54.5" cy="39.6" r="2.2"/>
		<circle class="st5" cx="50.4" cy="43.3" r="2.1"/>
		<circle class="st5" cx="51.8" cy="41.2" r="2.1"/>
		<circle class="st5" cx="47.1" cy="43.9" r="2.1"/>
		<circle class="st5" cx="43.8" cy="43.7" r="2.1"/>
		<circle class="st5" cx="40.8" cy="43" r="2.1"/>
		<circle class="st5" cx="37.5" cy="41.3" r="2.1"/>
		<circle class="st5" cx="34.6" cy="39.1" r="2.6"/>
		<circle class="st5" cx="36.4" cy="35.7" r="3.2"/>
		<circle class="st5" cx="39.5" cy="38.5" r="2.6"/>
		<circle class="st5" cx="42.6" cy="40.6" r="4"/>
		<circle class="st5" cx="48.7" cy="39.3" r="3.8"/>
		<circle class="st5" cx="58.1" cy="37.7" r="2.1"/>
		<g>
			<g>
				<g>
					<path class="st13" d="M92.9,98.9c-0.8-2.2,2.2,1.9,1.7,2.4c-3.6,6.6-28.4,20.9-50.8,20.9c-17.5,0-32.3-4.2-37.3-10.1
						c-0.2-0.1,1.8-3.2,1.3-1.8l9.2-1.4l27.4,2.7l30.7-6.4L92.9,98.9z"/>
				</g>
			</g>
		</g>
	</g>
	<line class="st18" x1="40.8" y1="48.5" x2="47.7" y2="48.5"/>
	<line class="st18" x1="57.6" y1="48.5" x2="64.6" y2="48.5"/>
	<line class="st18" x1="107.1" y1="48.5" x2="114.1" y2="48.5"/>
	<line class="st18" x1="121.4" y1="48.5" x2="128.3" y2="48.5"/>
</g>
</svg>
