<?xml version="1.0" encoding="utf-8"?>
<!-- Generator: Adobe Illustrator 19.2.0, SVG Export Plug-In . SVG Version: 6.00 Build 0)  -->
<svg version="1.1" id="Layer_1" xmlns="http://www.w3.org/2000/svg" xmlns:xlink="http://www.w3.org/1999/xlink" x="0px" y="0px"
	 viewBox="0 0 898.7 140.8" style="enable-background:new 0 0 898.7 140.8;" xml:space="preserve">
<style type="text/css">
	.st0{fill:#FFFFFF;}
</style>
<g>
	<path class="st0" d="M68.4,55.9h-12v55.9H18.6V55.9H5.3l1.3-27h63.5L68.4,55.9z"/>
	<path class="st0" d="M143.1,35.5c5.5,4.4,8.3,11.1,8.3,20.1s-2.8,16-8.4,21l11,35.2h-36.3L112.9,86h-2.4v25.8H72.9V28.9H117
		C128.8,28.9,137.5,31.1,143.1,35.5z M114.2,66.4V52.8H110v13.6H114.2z"/>
	<path class="st0" d="M243.2,111.8h-38.7l-2.1-12.7H192l-2.3,12.7h-37.4l16.2-82.9H227L243.2,111.8z M199.4,81.4V64.8h-4.3v16.6
		H199.4z"/>
	<path class="st0" d="M326.5,111.8h-34.2l-15.1-26.6v26.6h-32.4V28.9h35.1l13.9,26.8V28.9h32.7V111.8z"/>
	<path class="st0" d="M399.8,84.6c0,19-11.4,28.6-34.3,28.6c-11.3,0-22.6-1.3-33.8-4l1.1-24.3l30.7,5.9v-2.4
		c-6-1.2-10.8-2.5-14.6-3.8c-3.7-1.3-7.2-3.1-10.4-5.4c-6.2-4.5-9.3-11.5-9.3-21.3s3-17.2,8.9-22.4s14.4-7.7,25.3-7.7
		s22.4,0.9,34.3,2.8l-2.5,26.6l-29.8-4.5v2.5c11.9,1.6,20.6,4.5,26.2,8.6C397,67.8,399.8,74.8,399.8,84.6z"/>
	<path class="st0" d="M462.5,111.8h-60.1V28.9H465l-2,27.2h-23v4.8h22.4l-1.3,22.2H440v4.8h24.4L462.5,111.8z"/>
	<path class="st0" d="M538,35.5c5.5,4.4,8.3,11.1,8.3,20.1s-2.8,16-8.4,21l11.1,35.2h-36.3L507.9,86h-2.4v25.8h-37.6V28.9H512
		C523.7,28.9,532.5,31.1,538,35.5z M509.1,66.4V52.8h-4.3v13.6H509.1z"/>
	<path class="st0" d="M633.2,28.9L621,111.8h-59.5l-13.2-82.9h39l3.2,48.6h2.5l2.8-48.6C595.8,28.9,633.2,28.9,633.2,28.9z"/>
	<path class="st0" d="M673.5,111.8h-37.6V28.9h37.6V111.8z"/>
	<path class="st0" d="M727.3,122.4c0,3.7-1.5,6.7-4.4,8.8s-7.4,3.2-13.4,3.2s-11.7-1.6-17-4.8l6.3-10.9c3.5,2.4,7.2,4.2,11.2,5.3
		l0.5-1.1l-7.6-3.3c-1.7-0.9-2.5-2.1-2.5-3.6s0.9-3.1,2.7-4.7c-8.8-2.2-15.4-6.7-19.6-13.4c-4.4-6.8-6.5-16.1-6.5-28.1
		c0-15.2,3.6-26,10.8-32.4s18.5-9.6,33.9-9.6c3.9,0,9.2,0.4,15.9,1.3L735.3,61c-3.6-0.4-6.3-0.7-8.2-0.7s-3.4,0.6-4.3,1.9
		c-1,1.2-1.5,4.3-1.5,9.1c0,4.9,0.5,7.9,1.5,9.3c1,1.3,2.5,2,4.3,2s4.7-0.4,8.4-1.1l2,30.3c-6.4,0.9-12.4,1.3-18,1.3h-2.3l-0.3,0.4
		v0.5C723.9,114.1,727.3,116.8,727.3,122.4z"/>
	<path class="st0" d="M739.4,69.8c0-14.8,3.4-25.5,10.2-32.2c6.8-6.6,18.1-9.9,33.8-9.9s27,3.3,33.7,9.8s10.1,17.2,10.1,32
		s-3.5,25.8-10.4,32.9c-6.9,7.1-18.2,10.7-33.7,10.7s-26.7-3.5-33.5-10.5S739.4,84.6,739.4,69.8z M786.3,90.9V53.7H782v37.1
		L786.3,90.9L786.3,90.9z"/>
	<path class="st0" d="M898.7,84.6c0,19-11.4,28.6-34.3,28.6c-11.3,0-22.6-1.3-33.8-4l1.1-24.3l30.7,5.9v-2.4
		c-6-1.2-10.8-2.5-14.6-3.8c-3.7-1.3-7.2-3.1-10.4-5.4c-6.2-4.5-9.3-11.5-9.3-21.3s3-17.2,8.9-22.4s14.4-7.7,25.3-7.7
		c10.9,0,22.4,0.9,34.3,2.8L894,57.1l-29.8-4.5v2.5c11.9,1.6,20.6,4.5,26.2,8.6C896,67.8,898.7,74.8,898.7,84.6z"/>
</g>
</svg>
